<?xml version="1.0" encoding="UTF-8" standalone="no"?>
<svg
   xmlns:dc="http://purl.org/dc/elements/1.1/"
   xmlns:cc="http://creativecommons.org/ns#"
   xmlns:rdf="http://www.w3.org/1999/02/22-rdf-syntax-ns#"
   xmlns:svg="http://www.w3.org/2000/svg"
   xmlns="http://www.w3.org/2000/svg"
   xmlns:xlink="http://www.w3.org/1999/xlink"
   xmlns:sodipodi="http://sodipodi.sourceforge.net/DTD/sodipodi-0.dtd"
   xmlns:inkscape="http://www.inkscape.org/namespaces/inkscape"
   inkscape:version="1.0 (4035a4fb49, 2020-05-01)"
   sodipodi:docname="logo.svg"
   viewBox="0 0 270 270"
   height="270"
   width="270"
   id="svg833"
   version="1.1">
  <metadata
     id="metadata839">
    <rdf:RDF>
      <cc:Work
         rdf:about="">
        <dc:format>image/svg+xml</dc:format>
        <dc:type
           rdf:resource="http://purl.org/dc/dcmitype/StillImage" />
        <dc:title></dc:title>
      </cc:Work>
    </rdf:RDF>
  </metadata>
  <defs
     id="defs837">
    <linearGradient
       id="linearGradient1119"
       inkscape:collect="always">
      <stop
         id="stop1115"
         offset="0"
         style="stop-color:#f26520;stop-opacity:1" />
      <stop
         id="stop1117"
         offset="1"
         style="stop-color:#ed1f23;stop-opacity:1" />
    </linearGradient>
    <linearGradient
       id="linearGradient1111"
       inkscape:collect="always">
      <stop
         id="stop1107"
         offset="0"
         style="stop-color:#ed2722;stop-opacity:1" />
      <stop
         id="stop1109"
         offset="1"
         style="stop-color:#f26520;stop-opacity:1" />
    </linearGradient>
    <linearGradient
       id="linearGradient1103"
       inkscape:collect="always">
      <stop
         id="stop1099"
         offset="0"
         style="stop-color:#ed1f23;stop-opacity:1" />
      <stop
         id="stop1101"
         offset="1"
         style="stop-color:#f26520;stop-opacity:1" />
    </linearGradient>
    <clipPath
       id="clipPath882"
       clipPathUnits="userSpaceOnUse">
      <g
         id="use884"
         inkscape:label="Clip">
        <path
           style="fill:#000000"
           d="m -1.549597,191.85952 c -1.447985,-1.44799 -1.610857,-7.8 -0.2,-7.8 0.55,0 1.00000001,1.575 1.00000001,3.5 v 3.5 H 6.250403 c 4,0 7,0.42857 7,1 0,1.44381 -13.33641599,1.26358 -14.8,-0.2 z m 17.850187,-0.23953 c -0.657086,-0.79174 -1.049686,-2.70424 -0.872445,-4.25 0.318976,-2.78185 0.40118,-2.81344 8.072258,-3.10253 4.895409,-0.18449 7.75,0.0918 7.75,0.75 0,0.62266 -2.79354,1.04206 -6.940983,1.04206 -7.122301,0 -8.518651,0.63864 -7.455273,3.40976 0.476153,1.24083 2.124765,1.59024 7.503245,1.59024 3.928674,0 6.893011,0.43005 6.893011,1 0,1.64443 -13.550927,1.24603 -14.949813,-0.43953 z m 16.949813,-3.06047 v -4.5 h 7.464816 c 6.356789,0 7.618472,0.28711 8.5,1.93426 2.621159,4.89768 -0.151535,7.06574 -9.036245,7.06574 h -6.928571 z m 14.5,0 c 0,-1.77327 -0.76523,-2.03352 -6.75,-2.29569 -6.672877,-0.29231 -6.75,-0.26608 -6.75,2.29569 0,2.56177 0.07712,2.588 6.75,2.29569 5.98477,-0.26217 6.75,-0.52242 6.75,-2.29569 z m 4.5,3.5 c 0,-0.57143 3,-1 7,-1 9.247993,0 9.040658,-1.82968 -0.25,-2.20619 -6.485397,-0.26282 -7.25,-0.50474 -7.25,-2.29381 0,-1.80283 0.764021,-2.02879 7.75,-2.29206 4.895409,-0.18449 7.75,0.0918 7.75,0.75 0,0.61602 -3.168558,1.1233 -7.75,1.24076 l -7.75,0.19869 7.162447,0.34335 c 7.402687,0.35486 10.115802,1.78879 8.980813,4.74653 -0.447061,1.16502 -2.311623,1.51273 -8.111875,1.51273 -4.354257,0 -7.531385,-0.42185 -7.531385,-1 z m 27.346675,-3 0.153325,-4.5 7.75,-0.29206 c 4.686017,-0.1766 7.75,0.10259 7.75,0.70619 0,0.54904 -3.2625,1.13047 -7.25,1.29206 l -7.25,0.29381 -0.653325,3.5 c -0.599259,3.21035 -0.640637,3.12759 -0.5,-1 z m 18.703517,2.56047 c -0.65709,-0.79174 -1.049692,-2.70424 -0.87245,-4.25 0.31505,-2.74756 0.47841,-2.8172 7.298495,-3.11132 5.70616,-0.24607 7.20813,0.0163 8.25,1.44113 1.68762,2.30796 1.60657,3.88405 -0.29767,5.78829 -2.08682,2.08683 -12.67533,2.18396 -14.378375,0.1319 z m 13.449805,-3.06047 c 0,-1.73944 -0.76808,-2.03964 -5.89575,-2.30425 -6.212515,-0.3206 -8.274985,0.61394 -7.249975,3.28509 0.4975,1.29649 1.855855,1.55644 6.882785,1.31721 5.49692,-0.2616 6.26294,-0.54267 6.26294,-2.29805 z m 3.56339,0.20794 -0.0634,-4.79207 7.66975,0.29207 c 4.21836,0.16063 7.82132,0.75095 8.00658,1.31183 0.21346,0.64622 -2.50437,0.94129 -7.41974,0.80554 l -7.75659,-0.21422 5.45884,0.96628 c 5.54913,0.98227 10.04116,3.1882 10.04116,4.93098 0,0.52924 -1.4625,0.0705 -3.25,-1.01931 -4.5997,-2.80449 -10.53985,-2.67221 -11.71884,0.26096 -0.73312,1.82391 -0.91639,1.34252 -0.96777,-2.54206 z m 27.60328,3.62539 c -1.09645,-1.09644 -0.78048,-8.5217 0.33333,-7.83333 0.55,0.33992 1,1.94148 1,3.55902 v 2.94098 h 7 c 4,0 7,0.42857 7,1 0,1.10702 -14.24987,1.4168 -15.33333,0.33333 z m 16.33333,-3.83333 c 0,-2.475 0.45,-4.5 1,-4.5 0.55,0 1,2.025 1,4.5 0,2.475 -0.45,4.5 -1,4.5 -0.55,0 -1,-2.025 -1,-4.5 z m 3,1.2 c 0,-1.815 0.54,-3.84 1.2,-4.5 1.48895,-1.48895 16.21559,-1.68146 15.3,-0.2 -0.33992,0.55 -3.74148,1 -7.55902,1 h -6.94098 v 3.5 c 0,1.925 -0.45,3.5 -1,3.5 -0.55,0 -1,-1.485 -1,-3.3 z m 19.2,2.1 c -0.66,-0.66 -1.2,-2.145 -1.2,-3.3 0,-1.155 0.54,-2.64 1.2,-3.3 1.48895,-1.48895 16.21559,-1.68146 15.3,-0.2 -0.33992,0.55 -3.77277,1 -7.62857,1 -6.6982,0 -6.9963,0.10024 -6.69098,2.25 0.29323,2.06465 0.91678,2.2742 7.56955,2.54381 3.9875,0.16159 7.25,0.72409 7.25,1.25 0,1.41323 -14.36462,1.19157 -15.8,-0.24381 z m -162.699997,-3.8 c 0.339919,-0.55 3.039919,-1 6,-1 2.960081,0 5.660081,0.45 6,1 0.388242,0.62819 -1.842621,1 -6,1 -4.157379,0 -6.388242,-0.37181 -6,-1 z m 64,0 c 0.339919,-0.55 3.039919,-1 6,-1 2.960081,0 5.660081,0.45 6,1 0.388242,0.62819 -1.842621,1 -6,1 -4.157379,0 -6.388242,-0.37181 -6,-1 z m 83.499997,0 c 0,-0.55556 2.66667,-1 6,-1 3.33333,0 6,0.44444 6,1 0,0.55556 -2.66667,1 -6,1 -3.33333,0 -6,-0.44444 -6,-1 z m 18,0 c 0,-0.55 2.44844,-1 5.44098,-1 2.99254,0 5.7191,0.45 6.05902,1 0.38605,0.62464 -1.65628,1 -5.44098,1 -3.37268,0 -6.05902,-0.44336 -6.05902,-1 z M -2.08293,173.39285 c -0.366667,-0.36666 -0.666667,-4.38452 -0.666667,-8.92857 0,-8.20799 1.190987,-11.40476 4.248953,-11.40476 1.182327,0 13.701965,12.99122 13.732722,14.25 0.01008,0.4125 0.805825,0.74234 1.768325,0.73298 0.9625,-0.009 4.225,-2.96841 7.25,-6.57566 6.491787,-7.74133 8.21751,-8.89646 11.0368,-7.38763 1.857247,0.99397 2.011517,1.89965 1.75,10.27376 -0.244103,7.81647 -0.547331,9.23353 -2.0368,9.51845 -1.533278,0.29329 -1.75,-0.54122 -1.75,-6.73858 0,-3.89032 -0.3375,-7.06167 -0.75,-7.04743 -0.4125,0.0142 -3.45,3.16378 -6.75,6.99899 -4.034104,4.68837 -6.719172,6.97343 -8.194944,6.97411 -2.031217,9.3e-4 -5.253614,-2.92773 -12.652271,-11.49899 l -2.589583,-3 -0.0316,5.66821 c -0.01738,3.11752 -0.304746,6.38002 -0.63859,7.25 -0.623786,1.62556 -2.54426899,2.0972 -3.726345,0.91512 z m 56.333333,-0.89505 c 0,-2.3427 12.610008,-19.10303 14.804321,-19.67686 0.973648,-0.25461 2.756925,-0.0979 3.962836,0.34815 2.424955,0.89705 15.406641,17.8009 14.891312,19.39043 -0.9817,3.02805 -3.88161,0.95649 -9.746944,-6.96278 -3.487298,-4.70848 -6.760763,-8.42081 -7.274368,-8.24961 -0.513604,0.17121 -3.699449,3.88669 -7.079655,8.25664 -6.046758,7.81729 -9.557502,10.34966 -9.557502,6.89403 z m 50.701237,0.92962 c -0.38568,-0.38568 -0.70124,-4.02169 -0.70124,-8.08002 0,-6.50094 0.29202,-7.67081 2.45455,-9.83333 2.36165,-2.36166 2.95769,-2.45399 15.75,-2.43981 16.10784,0.0179 18.29545,0.78381 18.29545,6.40581 0,4.34339 -2.50863,6.97082 -4.63009,4.84936 -0.91353,-0.91353 -0.9001,-1.5286 0.0586,-2.68372 2.46149,-2.96596 0.12883,-3.58619 -13.48753,-3.58619 -10.6289,0 -13.44098,0.28295 -13.44098,1.3524 0,0.99653 2.54719,1.53145 9.68002,2.03284 10.36445,0.72855 16.52119,2.76761 20.16461,6.67836 2.41118,2.5881 2.86824,5.9364 0.81036,5.9364 -0.73976,0 -2.20226,-0.96355 -3.25,-2.14123 -3.59412,-4.03984 -9.24354,-5.81317 -18.59462,-5.83681 l -8.68964,-0.022 -0.31036,3.74168 c -0.29604,3.56897 -2.35202,5.38333 -4.10913,3.62622 z m 55.29876,-1.3679 c 0,-1.91329 0.66667,-2 15.37756,-2 11.64438,0 15.64794,-0.3258 16.49132,-1.34201 0.61257,-0.7381 0.81767,-1.6381 0.45578,-2 -0.3619,-0.36189 -7.33299,-0.65799 -15.49133,-0.65799 -13.5,0 -15.01311,-0.17978 -16.83333,-2 -2.80193,-2.80193 -2.53148,-6.43678 0.66607,-8.95197 2.48703,-1.9563 3.71261,-2.07869 18.25,-1.82258 15.30472,0.26963 15.58966,0.31486 15.90348,2.52455 l 0.31955,2.25 h -15.90288 c -8.74659,0 -16.19898,0.2961 -16.56088,0.65799 -0.36189,0.3619 -0.15679,1.2619 0.45578,2 0.84006,1.01221 4.75595,1.34201 15.93462,1.34201 14.18183,0 14.88797,0.0958 16.37756,2.22251 2.09517,2.99128 1.95931,5.37488 -0.4433,7.77749 -1.83838,1.83838 -3.33333,2 -18.5,2 -15.83333,0 -16.5,-0.0808 -16.5,-2 z m -91.638371,-1.5 c -0.792192,-2.06442 0.281923,-4.5 1.984544,-4.5 0.774918,0 1.969141,0.675 2.65383,1.5 0.993186,1.19672 0.993186,1.80328 0,3 -0.684689,0.825 -1.878912,1.5 -2.65383,1.5 -0.774917,0 -1.667961,-0.675 -1.984544,-1.5 z m 8.638374,-40.10624 c -2.81208,-0.75395 -5.573444,-1.72493 -8.262225,-2.89157 -17.419335,-7.55812 -31.792312,-23.32849 -37.173662,-41.502181 -2.524617,-8.52604 -3.04561,-22.170785 -1.183667,-31 C 35.924637,29.956716 56.750812,9.3427934 81.750403,4.4609649 101.43065,0.61787729 122.82063,6.7386214 138.16933,20.605249 c 6.42683,5.80626 13.68711,17.486486 16.6211,26.739773 7.98842,25.194129 0.72922,51.942861 -18.77723,69.190348 -6.09914,5.39282 -20.88894,12.87002 -28.56202,14.43993 -7.41193,1.51648 -23.644091,1.23591 -30.200777,-0.52202 z m 29.458447,-12.92495 c 17.61948,-4.58929 32.42107,-19.390877 37.01036,-37.010355 1.75042,-6.720307 1.96606,-18.859015 0.45178,-25.43064 -2.0307,-8.81277 -6.92533,-17.217773 -14.32832,-24.604427 C 118.63176,19.296738 105.80843,14.334083 90.750403,15.35412 71.453461,16.661303 55.720797,27.201976 47.159364,44.559529 c -7.424881,15.053292 -7.391123,30.950411 0.09804,46.165 5.776485,11.735201 15.291795,20.031071 27.267951,24.542541 9.853189,3.71174 21.622448,5.01206 32.183495,2.26126 z m -6.05004,-6.84689 c -1.476125,-3.84671 0.16449,-4.87595 9.74626,-6.1143 5.8789,-0.75979 9.84533,-4.1807 9.84533,-8.491247 0,-6.274809 -7.10939,-5.259888 -9.9744,1.42392 -2.04911,4.780367 -4.37705,6.080697 -9.04901,5.054567 -2.011435,-0.44178 -3.172355,-1.42669 -3.575645,-3.033497 -0.85004,-3.386839 -2.434081,-4.381509 -8.001829,-5.024602 -8.3454,-0.963921 -9.313517,-1.370547 -10.992298,-4.616953 -1.886007,-3.647135 -1.437006,-11.552421 0.734288,-12.928167 2.180926,-1.381849 14.462414,-1.074291 15.679876,0.392661 0.586228,0.706361 1.516871,4.08476 2.068096,7.507553 1.249197,7.756783 1.537107,8.208154 5.235682,8.208154 4.52937,0 6.67924,-1.613779 7.99345,-6.000211 1.41221,-4.713538 3.46325,-6.783206 7.44741,-7.515045 4.10165,-0.753422 5.68454,0.659433 6.36386,5.680252 0.57013,4.213765 0.68854,4.335004 4.23384,4.335004 4.56823,0 5.31262,0.718256 3.79771,3.664354 -1.59414,3.10017 -7.07201,8.835637 -8.43879,8.835637 -0.59699,0 -4.48088,2.02068 -8.63087,4.49041 -8.78909,5.23052 -13.54104,6.5861 -14.48296,4.13151 z M 60.750403,89.556592 C 55.926092,87.84981 52.70411,84.354721 51.302529,79.307882 49.847817,74.069725 49.99456,70.869808 51.808233,68.280428 c 1.436743,-2.051238 2.088846,-2.174761 8.389581,-1.589169 6.470054,0.601328 6.916243,0.505994 8.427625,-1.800667 2.598712,-3.966136 3.086752,-8.47734 1.224575,-11.319382 -2.273484,-3.469775 -5.311739,-3.213029 -7.396121,0.625005 -3.129419,5.762292 -5.474014,7.811517 -7.850811,6.861775 -2.006137,-0.80163 -2.13339,-1.47644 -1.935434,-10.263465 0.177528,-7.880269 0.569171,-9.907178 2.415214,-12.499706 2.69586,-3.785987 8.688847,-7.63296 10.692925,-6.863923 2.237275,0.858523 1.859708,1.797024 -3.025384,7.520056 -4.816274,5.64241 -5.500488,7.787423 -2.812984,8.818715 1.201682,0.461129 2.871453,-0.698651 5.804106,-4.031384 4.245496,-4.824677 7.283536,-5.860127 9.468677,-3.227193 0.941078,1.133929 0.929122,2.213627 -0.05464,4.934165 -1.612291,4.458713 -0.343248,6.158048 5.148876,6.894696 6.100222,0.818211 6.945965,1.992228 6.945965,9.642023 0,3.86032 -0.506275,7.18383 -1.2,7.877555 -0.696815,0.696815 -4.036626,1.2 -7.964816,1.2 -8.19452,0 -8.835184,0.778371 -8.835184,10.734259 0,6.572177 -1.029132,9.323047 -3.45,9.221848 -0.5775,-0.02414 -2.85,-0.680711 -5.05,-1.459044 z M 128.44551,74.201275 c -0.71769,-0.455196 -2.18687,-4.385805 -3.26484,-8.734687 -2.87361,-11.593037 -6.45201,-15.338933 -11.87869,-12.434666 -1.59085,0.8514 -2.05158,2.084608 -2.05158,5.491362 0,5.66875 -1.86749,7.536245 -7.53624,7.536245 -4.929365,0 -6.463757,-1.646077 -6.463757,-6.934259 0,-4.056641 -3.108864,-7.065741 -7.3,-7.065741 -4.074422,0 -5.7,-1.520619 -5.7,-5.331966 0,-5.840205 4.793842,-10.807049 11.453316,-11.866648 1.392352,-0.221539 2.267316,-1.600428 3.046686,-4.801386 0.65294,-2.681747 1.729925,-4.613181 2.673665,-4.79493 1.63846,-0.315539 7.82633,7.158759 7.82633,9.453388 0,0.69545 -1.78352,1.744707 -3.96339,2.331683 -2.17986,0.586977 -4.65486,2.054449 -5.500005,3.261051 -3.366719,4.806679 -0.85139,11.748808 4.256955,11.748808 2.53588,0 4.6049,-3.368298 3.84768,-6.263906 -1.46797,-5.613505 5.64384,-8.078388 9.06208,-3.140829 4.27939,6.181468 5.13118,6.655859 10.70136,5.959912 4.30602,-0.538002 5.4851,-0.334453 6.85943,1.184172 2.71627,3.001444 4.78729,9.005244 5.41124,15.686967 0.54088,5.792213 0.40438,6.404431 -1.7671,7.925394 -2.50211,1.75255 -7.54844,2.163002 -9.71314,0.790036 z M 162.54895,129.1 c -8.58162,-5.23252 -8.14762,-18.43433 0.76311,-23.21321 12.09858,-6.488527 25.1129,7.17391 17.97882,18.87418 -3.75298,6.15509 -12.45816,8.17047 -18.74193,4.33903 z M 15.250403,30.059529 c -2.697671,-2.697671 -2.55585,-7.129178 0.314451,-9.825686 3.002611,-2.820806 6.781885,-2.765123 9.511235,0.140137 4.330045,4.609122 1.40775,11.685549 -4.825686,11.685549 -1.666667,0 -3.888889,-0.888889 -5,-2 z"
           id="path888"
           sodipodi:nodetypes="ssscssssssssssssccsssccsssssssssssscssssscssscsssssssssssssccssscsscsscssscsssssssssssscsssssssssssssssssssssssssssssssssssscssssscssscssssscssssscsscsscssssssscsccssssssssscssssssssssssssssssssssssssssssssssssssssssssssssssssssssssssssssssssssssssssssssssssssssscsssssssssssssssss" />
      </g>
    </clipPath>
    <linearGradient
       gradientTransform="matrix(1.3420133,0,0,1.3420133,335.84537,14.733106)"
       gradientUnits="userSpaceOnUse"
       y2="76.559425"
       x2="-169.52655"
       y1="38.427933"
       x1="-195.06387"
       id="linearGradient1105"
       xlink:href="#linearGradient1103"
       inkscape:collect="always" />
    <linearGradient
       gradientTransform="matrix(1.3420133,0,0,1.3420133,335.84537,14.733106)"
       gradientUnits="userSpaceOnUse"
       y2="69.688583"
       x2="-107.82007"
       y1="27.174164"
       x1="-154.27913"
       id="linearGradient1113"
       xlink:href="#linearGradient1111"
       inkscape:collect="always" />
    <linearGradient
       gradientTransform="matrix(1.3420133,0,0,1.3420133,335.84537,14.733106)"
       gradientUnits="userSpaceOnUse"
       y2="73.633217"
       x2="-166.11304"
       y1="103.87543"
       x1="-127.10496"
       id="linearGradient1121"
       xlink:href="#linearGradient1119"
       inkscape:collect="always" />
  </defs>
  <sodipodi:namedview
     inkscape:current-layer="g841"
     inkscape:window-maximized="1"
     inkscape:window-y="-8"
     inkscape:window-x="1974"
     inkscape:cy="148.22941"
     inkscape:cx="142.1873"
     inkscape:zoom="2.2815789"
     showgrid="false"
     id="namedview835"
     inkscape:window-height="1057"
     inkscape:window-width="1858"
     inkscape:pageshadow="2"
     inkscape:pageopacity="0"
     guidetolerance="10"
     gridtolerance="10"
     objecttolerance="10"
     borderopacity="1"
     bordercolor="#666666"
     pagecolor="#ffffff" />
  <g
     id="g841"
     inkscape:label="Image"
     inkscape:groupmode="layer">
    <path
       id="path949"
       d="m 25.241945,49.250562 c -3.620309,-3.620311 -3.429985,-9.567452 0.421996,-13.186201 4.029543,-3.78556 9.101373,-3.710832 12.764197,0.188065 5.810985,6.185503 1.889219,15.682162 -6.476126,15.682162 -2.236694,0 -5.218943,-1.1929 -6.710067,-2.684026 z"
       style="fill:#ed1b23;fill-opacity:1;stroke:none;stroke-width:1.34201;stroke-opacity:1" />
    <path
       id="path947"
       d="m 222.91856,182.16419 c -11.51665,-7.02211 -10.93422,-24.73911 1.0241,-31.15243 16.23646,-8.7077 33.70185,9.62748 24.12782,25.3294 -5.03655,8.26021 -16.71902,10.96488 -25.15192,5.82303 z"
       style="fill:#ed1b23;fill-opacity:1;stroke:none;stroke-width:1.34201" />
    <path
       id="path945"
       d="m 177.15127,108.48937 c -0.96314,-0.61088 -2.9348,-5.88581 -4.38145,-11.722064 -3.85643,-15.55801 -8.65869,-20.585052 -15.94136,-16.687487 -2.13495,1.14259 -2.75325,2.797571 -2.75325,7.369481 0,7.607538 -2.5062,10.113741 -10.11374,10.113741 -6.61526,0 -8.67443,-2.209058 -8.67443,-9.305868 0,-5.444066 -4.17215,-9.482319 -9.7967,-9.482319 -5.46793,0 -7.64948,-2.04069 -7.64948,-7.155569 0,-7.837633 6.4334,-14.503203 15.3705,-15.925199 1.86856,-0.297309 3.04277,-2.147796 4.0887,-6.443524 0.87625,-3.59894 2.32157,-6.19095 3.58808,-6.43486 2.19884,-0.423458 10.50304,9.60715 10.50304,12.686572 0,0.933304 -2.39351,2.34142 -5.31892,3.12915 -2.9254,0.787731 -6.24688,2.757098 -7.38107,4.376374 -4.51819,6.450627 -1.14258,15.767056 5.71288,15.767056 3.40318,0 6.17984,-4.5203 5.16364,-8.406245 -1.97004,-7.533398 7.57411,-10.841304 12.16143,-4.215034 5.743,8.295612 6.88611,8.932251 14.36137,7.998281 5.77875,-0.722006 7.36109,-0.44884 9.20546,1.589175 3.64527,4.027978 6.4246,12.085157 7.26195,21.052118 0.72587,7.773231 0.54269,8.594831 -2.37147,10.635981 -3.35786,2.35195 -10.13011,2.90278 -13.03518,1.06024 z"
       style="fill:url(#linearGradient1113);fill-opacity:1;stroke:none;stroke-width:1.34201;stroke-opacity:1" />
    <path
       id="path943"
       d="m 86.30355,129.09641 c -6.474288,-2.29052 -10.798241,-6.98098 -12.67918,-13.7539 -1.952241,-7.02968 -1.755314,-11.32401 0.678669,-14.79899 1.928124,-2.752792 2.803251,-2.918562 11.258928,-2.132689 8.682893,0.80699 9.281686,0.67905 11.309978,-2.416519 3.487515,-5.322608 4.142475,-11.376703 1.643403,-15.190762 -3.051054,-4.656484 -7.128426,-4.311927 -9.925692,0.838765 -4.199723,7.733073 -7.346207,10.48316 -10.535891,9.208594 -2.692267,-1.075798 -2.863038,-1.981402 -2.597386,-13.773707 0.238247,-10.575426 0.763833,-13.295564 3.241257,-16.774771 3.61788,-5.080845 11.660539,-10.243534 14.350041,-9.211476 3.002459,1.152149 2.495756,2.41163 -4.0601,10.092015 -6.463512,7.572189 -7.381731,10.450825 -3.77507,11.834833 1.612684,0.618841 3.853537,-0.937599 7.789193,-5.410171 5.697517,-6.474781 9.77461,-7.864369 12.70709,-4.330936 1.26293,1.521748 1.2469,2.970717 -0.0733,6.621715 -2.16371,5.983652 -0.46065,8.264182 6.90985,9.252774 8.18658,1.09805 9.32159,2.673596 9.32159,12.939723 0,5.1806 -0.67944,9.640792 -1.61042,10.571782 -0.93514,0.93514 -5.41721,1.61042 -10.68889,1.61042 -10.997159,0 -11.856933,1.04458 -11.856933,14.40552 0,8.81994 -1.381106,12.51165 -4.629946,12.37584 -0.775013,-0.0324 -3.824738,-0.91353 -6.777167,-1.95806 z"
       style="mix-blend-mode:normal;fill:url(#linearGradient1105);fill-opacity:1;stroke:none;stroke-width:1.34201;stroke-opacity:1" />
    <path
       id="path941"
       d="m 139.86115,157.44624 c -1.98097,-5.16234 0.22075,-6.54359 13.07961,-8.20547 7.88957,-1.01965 13.21257,-5.61056 13.21257,-11.39537 0,-8.42088 -9.5409,-7.05884 -13.38578,1.91092 -2.74993,6.41532 -5.87406,8.16038 -12.14389,6.7833 -2.69937,-0.59288 -4.25734,-1.91464 -4.79856,-4.071 -1.14076,-4.54518 -3.26657,-5.88004 -10.73856,-6.74308 -11.19964,-1.29359 -12.49887,-1.8393 -14.75181,-6.19601 -2.53104,-4.89451 -1.92848,-15.5035 0.98542,-17.34977 2.92684,-1.85446 19.40875,-1.44172 21.04261,0.52695 0.78672,0.94795 2.03566,5.4818 2.77541,10.07524 1.67644,10.40971 2.06282,11.01545 7.02635,11.01545 6.07847,0 8.96363,-2.16571 10.72731,-8.05236 1.89521,-6.32563 4.64773,-9.10316 9.99453,-10.08529 5.50447,-1.01111 7.62873,0.88496 8.54038,7.62297 0.76512,5.65493 0.92403,5.81763 5.68187,5.81763 6.13064,0 7.12962,0.96391 5.09659,4.91761 -2.13935,4.16047 -9.49074,11.85755 -11.32498,11.85755 -0.80117,0 -6.0134,2.71178 -11.58274,6.02619 -11.79508,7.01943 -18.17226,8.83863 -19.43633,5.54454 z"
       style="fill:url(#linearGradient1121);fill-opacity:1;stroke:none;stroke-width:1.34201;stroke-opacity:1" />
    <path
       sodipodi:nodetypes="cccsccsssscc"
       id="path959"
       d="m 99.112302,164.37773 c 8.817548,4.94505 33.037458,9.58194 49.441448,4.50899 25.79182,-5.5577 45.87354,-28.9099 51.33213,-51.1241 3.18092,-11.09832 2.82154,-25.977117 -0.22554,-38.079464 -2.92583,-11.620752 -11.8903,-24.87323 -21.82522,-34.786218 3.3849,-4.583075 5.90258,-4.942105 10.01289,-7.892999 10.28855,9.351766 21.12959,26.849894 24.29089,39.487825 9.41393,37.634126 -2.61894,68.448196 -25.71396,88.566886 -9.51277,8.28684 -19.62809,13.71732 -29.88794,17.44172 -17.06447,6.1945 -39.5495,4.01138 -48.34865,1.65222 -3.77385,-1.01181 -7.86383,-1.7119 -14.48671,-4.82156 -13.753623,-9.41606 -9.599367,-20.74657 5.410662,-14.9533 z"
       style="fill:#ed1b23;fill-opacity:1;stroke:none;stroke-width:1.34201;stroke-opacity:1" />
    <path
       sodipodi:nodetypes="sssczcssscscs"
       id="path939"
       d="M 46.397188,125.58728 C 43.009114,114.14522 42.332632,94.308508 44.83138,82.459584 c 7.104337,-33.688309 35.222374,-60.422962 68.77216,-66.97444 26.41114,-5.157475 53.64629,2.909596 74.24447,21.518795 3.19371,3.305198 2.95954,6.989444 0.47108,9.508238 -2.48845,2.518794 -7.1978,2.136135 -10.48397,-1.615239 C 161.75013,30.716782 137.03771,24.203685 118.61107,28.232277 93.924548,33.629464 77.007786,45.795924 67.1819,65.138783 56.980117,85.221614 55.621946,103.06979 62.553068,123.48797 c 5.642401,16.62177 20.695027,34.00347 36.559234,40.88976 -3.826469,-2.05227 -8.904084,-0.69741 -10.508273,3.02901 -1.744174,4.05155 -0.294196,7.97354 5.097611,11.92429 C 70.009737,166.6871 53.170544,148.462 46.397188,125.58728 Z"
       style="fill:#f26520;fill-opacity:1;stroke:none;stroke-width:1.34201;stroke-opacity:1" />
    <g
       transform="matrix(0.92371754,0,0,0.92371754,11.91673,18.941554)"
       id="g1182">
      <path
         style="fill:#ed1b23;fill-opacity:1;stroke:none;stroke-width:1.34201"
         d="m 96.853949,237.80342 c -1.06313,-2.77048 0.378354,-6.03906 2.663292,-6.03906 1.039949,0 2.642609,0.90586 3.561479,2.01302 1.33286,1.60601 1.33286,2.42003 0,4.02604 -0.91887,1.10716 -2.52153,2.01302 -3.561479,2.01302 -1.039953,0 -2.238424,-0.90586 -2.663292,-2.01302 z"
         id="path935" />
      <path
         style="fill:#ed1b23;fill-opacity:1;stroke:none;stroke-width:1.34201"
         d="m 219.83387,239.81644 c 0,-2.56766 0.89468,-2.68403 20.63689,-2.68403 15.62692,0 20.99975,-0.43722 22.13157,-1.80099 0.82208,-0.99054 1.09733,-2.19835 0.61167,-2.68403 -0.48568,-0.48566 -9.84097,-0.88303 -20.78957,-0.88303 -18.11718,0 -20.1478,-0.24127 -22.59056,-2.68403 -3.76022,-3.76022 -3.39728,-8.63824 0.89388,-12.01366 3.33763,-2.62538 4.98237,-2.78963 24.49174,-2.44593 20.53914,0.36185 20.92153,0.42255 21.34268,3.38798 l 0.42884,3.01953 h -21.34187 c -11.73804,0 -21.73925,0.39737 -22.22492,0.88303 -0.48567,0.48568 -0.21042,1.69349 0.61166,2.68403 1.12737,1.3584 6.38255,1.801 21.38447,1.801 19.0322,0 19.97985,0.12856 21.9789,2.98263 2.81175,4.01434 2.62942,7.21317 -0.59491,10.4375 -2.46713,2.46713 -4.47337,2.68403 -24.82725,2.68403 -21.24854,0 -22.14322,-0.10844 -22.14322,-2.68403 z"
         id="path933" />
      <path
         style="fill:#ed1b23;fill-opacity:1;stroke:none;stroke-width:1.34201"
         d="m 145.62219,241.65218 c -0.51759,-0.51759 -0.94107,-5.39716 -0.94107,-10.84349 0,-8.72435 0.39189,-10.29433 3.29403,-13.19646 3.16937,-3.16938 3.96926,-3.29329 21.13671,-3.27426 21.61695,0.024 24.55275,1.05188 24.55275,8.59668 0,5.82889 -3.36661,9.35493 -6.21364,6.50791 -1.22597,-1.22597 -1.20794,-2.05141 0.0786,-3.60159 3.30336,-3.98036 0.1729,-4.81272 -18.10045,-4.81272 -14.26413,0 -18.03798,0.37973 -18.03798,1.81494 0,1.33736 3.41836,2.05523 12.99072,2.7281 13.90923,0.97772 22.17167,3.71417 27.06119,8.96245 3.23583,3.47326 3.84921,7.96673 1.08751,7.96673 -0.99277,0 -2.95546,-1.2931 -4.36154,-2.87356 -4.82336,-5.42152 -12.40497,-7.80135 -24.95424,-7.83308 l -11.66162,-0.0295 -0.4165,5.02138 c -0.39729,4.78961 -3.15645,7.2245 -5.51451,4.86644 z"
         id="path931" />
      <path
         style="fill:#ed1b23;fill-opacity:1;stroke:none;stroke-width:1.34201"
         d="m 77.580464,240.40462 c 0,-3.14394 16.922801,-25.63652 19.867594,-26.40661 1.306651,-0.34169 3.699822,-0.13138 5.318172,0.46722 3.25433,1.20385 20.67593,23.88905 19.98435,26.02222 -1.31746,4.06368 -5.20917,1.28362 -13.08054,-9.34415 -4.68,-6.31884 -9.07303,-11.30084 -9.7623,-11.07108 -0.689258,0.22976 -4.964697,5.21599 -9.500984,11.08052 -8.114833,10.4909 -12.826292,13.88938 -12.826292,9.25188 z"
         id="path929" />
      <path
         style="fill:#ed1b23;fill-opacity:1;stroke:none;stroke-width:1.34201"
         d="m 1.9803722,241.60579 c -0.4920626,-0.49207 -0.8946666,-5.88409 -0.8946666,-11.98226 0,-11.01524 1.598311,-15.30534 5.7021474,-15.30534 1.5867026,0 18.388226,17.43439 18.429493,19.12369 0.01355,0.55358 1.081434,0.99623 2.373122,0.98367 1.291688,-0.0121 5.670006,-3.98365 9.729597,-8.82463 8.712055,-10.38897 11.028007,-11.93917 14.811532,-9.9143 2.492441,1.33393 2.699473,2.54936 2.348523,13.78753 -0.327598,10.4898 -0.734524,12.39152 -2.733412,12.77388 -2.057682,0.3936 -2.348524,-0.72632 -2.348524,-9.04326 0,-5.22086 -0.452929,-9.47686 -1.00651,-9.45775 -0.55358,0.0191 -4.629945,4.24584 -9.058589,9.39274 -5.41383,6.29186 -9.017216,9.35844 -10.997732,9.35935 -2.725911,0.001 -7.050415,-3.92905 -16.979515,-15.4318 l -3.4752507,-4.02604 -0.042408,7.60682 c -0.023351,4.18375 -0.4089785,8.56207 -0.8569962,9.72959 -0.8371345,2.18153 -3.4144442,2.81447 -5.0008109,1.22811 z"
         id="path927" />
    </g>
  </g>
</svg>
