<?xml version="1.0" standalone="no"?>
<!DOCTYPE svg PUBLIC "-//W3C//DTD SVG 20010904//EN"
 "http://www.w3.org/TR/2001/REC-SVG-20010904/DTD/svg10.dtd">
<svg version="1.0" xmlns="http://www.w3.org/2000/svg"
 width="270.000000pt" height="270.000000pt" viewBox="0 0 270.000000 270.000000"
 preserveAspectRatio="xMidYMid meet">
<metadata>
Created by potrace 1.11, written by Peter Selinger 2001-2013
</metadata>
<g transform="translate(0.000000,270.000000) scale(0.100000,-0.100000)"
fill="#000000" stroke="none">
<path d="M1185 2555 c-5 -2 -44 -11 -85 -20 -309 -70 -568 -326 -644 -636 -31
-126 -28 -313 6 -444 54 -211 245 -432 468 -543 132 -65 334 -93 500 -69 296
42 565 265 678 562 24 63 42 182 43 279 0 219 -61 394 -199 564 -161 199 -419
317 -682 311 -41 -1 -79 -3 -85 -4z m250 -139 c81 -18 117 -31 195 -69 171
-82 329 -283 372 -472 21 -91 22 -238 3 -325 -47 -208 -191 -392 -378 -484
-126 -61 -221 -81 -356 -73 -205 12 -333 68 -467 201 -119 119 -181 237 -209
396 -28 159 -3 297 83 465 94 183 271 311 497 360 60 13 203 13 260 1z"/>
<path d="M1384 2233 c-28 -73 -38 -87 -74 -96 -19 -5 -50 -20 -68 -33 -86 -66
-82 -194 8 -194 66 0 96 -31 104 -109 6 -54 20 -69 66 -74 85 -10 120 21 120
103 0 46 30 80 69 80 52 -1 84 -51 121 -187 12 -45 27 -89 34 -99 19 -25 98
-24 133 2 26 20 28 27 27 86 -2 76 -25 161 -57 209 -23 34 -23 34 -101 35
l-78 1 -57 60 c-49 53 -60 61 -84 56 -37 -7 -57 -39 -51 -80 4 -26 0 -38 -20
-58 -32 -31 -47 -31 -79 0 -30 31 -37 62 -23 106 9 27 23 40 66 61 30 15 59
29 64 31 27 10 -57 137 -91 137 -8 0 -21 -17 -29 -37z"/>
<path d="M857 2161 c-25 -17 -57 -47 -71 -68 -23 -34 -26 -51 -30 -148 -4
-126 3 -155 37 -155 26 0 52 25 90 86 34 55 60 61 92 22 28 -33 32 -72 11
-121 -25 -61 -39 -68 -122 -62 -40 4 -83 3 -95 0 -64 -20 -56 -172 13 -250 27
-31 117 -75 153 -75 23 0 36 35 41 113 8 129 10 135 52 146 20 5 64 10 97 10
80 3 89 13 92 107 2 110 -10 130 -87 141 -19 3 -46 12 -59 20 -20 13 -23 21
-18 52 3 20 8 43 11 51 9 21 -14 49 -42 55 -17 3 -38 -11 -86 -56 -61 -57 -88
-70 -101 -49 -9 14 20 69 61 115 79 89 57 126 -39 66z"/>
<path d="M1130 1583 c-28 -10 -40 -37 -40 -91 0 -59 22 -117 48 -127 9 -4 52
-13 95 -20 94 -17 103 -22 125 -66 34 -67 127 -63 162 7 33 67 73 100 107 87
45 -17 45 -73 0 -118 -25 -25 -47 -35 -92 -44 -103 -19 -140 -34 -141 -56 -1
-59 37 -58 157 5 51 28 113 60 137 71 72 34 161 143 137 167 -3 4 -27 9 -52
12 l-47 5 -12 53 c-14 65 -24 76 -69 75 -53 -2 -83 -27 -115 -98 -23 -52 -34
-65 -62 -74 -78 -25 -100 -5 -118 108 -16 99 -27 108 -126 109 -43 1 -86 -2
-94 -5z"/>
<path d="M277 2354 c-44 -24 -62 -98 -33 -136 14 -19 57 -38 87 -38 30 0 79
53 79 85 0 76 -70 123 -133 89z"/>
<path d="M2242 1189 c-91 -45 -122 -168 -65 -257 90 -139 318 -79 328 87 9
139 -136 232 -263 170z"/>
<path d="M1000 517 c-29 -25 -105 -123 -143 -183 -16 -25 -22 -46 -17 -54 11
-18 49 14 134 119 l70 84 32 -39 c18 -21 52 -63 76 -93 24 -30 53 -61 65 -69
20 -13 23 -13 29 2 7 19 -60 122 -129 197 -51 57 -82 66 -117 36z"/>
<path d="M149 514 c-14 -17 -25 -177 -15 -219 4 -14 13 -25 21 -25 23 0 35 34
35 104 0 37 4 66 10 66 6 0 10 -3 10 -8 0 -14 149 -162 163 -162 24 0 82 53
169 153 10 11 21 18 23 15 5 -5 12 -83 14 -150 1 -30 29 -20 36 12 8 37 9 195
1 208 -3 5 -17 12 -31 14 -25 5 -36 -4 -147 -122 -61 -66 -62 -66 -105 -19
-72 81 -145 149 -158 149 -7 0 -18 -7 -26 -16z"/>
<path d="M1513 520 c-42 -17 -56 -54 -56 -146 0 -91 12 -120 38 -94 13 14 22
43 24 79 1 11 22 12 109 8 129 -6 166 -16 219 -62 47 -40 63 -44 63 -14 0 69
-92 117 -255 134 -90 9 -128 15 -134 20 -14 15 27 20 164 20 164 0 186 -6 166
-43 -8 -15 -7 -23 5 -33 21 -17 45 8 49 52 6 77 -18 87 -215 88 -85 0 -165 -4
-177 -9z"/>
<path d="M2161 504 c-50 -42 -39 -106 21 -127 10 -4 91 -7 181 -7 160 -2 203
-8 182 -29 -15 -15 -72 -20 -231 -22 -146 -1 -171 -6 -161 -33 5 -13 33 -15
194 -15 103 1 198 5 210 9 12 5 29 20 39 35 14 21 14 30 4 55 -7 17 -18 34
-24 38 -6 4 -93 9 -193 12 -125 3 -186 9 -194 17 -27 27 2 30 254 32 131 1
137 2 137 21 0 31 -28 36 -216 38 -172 2 -173 2 -203 -24z"/>
<path d="M1022 358 c-18 -18 -15 -46 7 -57 14 -8 22 -6 35 8 20 22 20 26 0 45
-19 19 -26 20 -42 4z"/>
</g>
</svg>
